<svg xmlns="http://www.w3.org/2000/svg" xmlns:xlink="http://www.w3.org/1999/xlink" x="0px" y="0px" style="enable-background:new 0 0 54.922 55.902" version="1.1" viewBox="0 0 54.922 69.8775" xml:space="preserve">
    <g>
        <path d="M12.306,30c-0.286,0-0.569-0.122-0.767-0.358C3.896,20.523-2.83,9.337,1.215,5.293c3.182-3.185,11.437,1.266,14.838,3.326   c0.472,0.287,0.623,0.901,0.337,1.374c-0.286,0.473-0.901,0.624-1.374,0.337C8.129,6.157,3.832,5.504,2.629,6.707   c-2.031,2.031,0.938,10.31,10.443,21.651c0.355,0.423,0.299,1.054-0.124,1.409C12.761,29.924,12.533,30,12.306,30z"/>
        <path d="M47.298,55.902c-2.39,0-5.623-1.133-9.582-3.38c-5.859-3.326-12.651-8.722-19.123-15.194l-0.549-0.544   c-0.399-0.395-0.838-0.829-1.141-1.142c-0.384-0.397-0.374-1.03,0.022-1.414c0.397-0.383,1.03-0.374,1.414,0.022   c0.295,0.305,0.722,0.727,1.111,1.111l0.557,0.553c6.349,6.349,12.989,11.629,18.696,14.869c6.124,3.476,9.445,3.577,10.51,2.51   c1.187-1.187,0.569-5.59-3.589-12.454c-0.286-0.472-0.135-1.087,0.337-1.374c0.472-0.286,1.087-0.135,1.373,0.337   c2.064,3.407,6.517,11.68,3.292,14.904C49.831,55.505,48.712,55.902,47.298,55.902z"/>
        <path d="M23.922,12c-3.308,0-6-2.691-6-6s2.692-6,6-6s6,2.691,6,6S27.23,12,23.922,12z M23.922,2c-2.206,0-4,1.794-4,4s1.794,4,4,4   s4-1.794,4-4S26.127,2,23.922,2z"/>
        <path d="M14.922,37c-2.757,0-5-2.243-5-5s2.243-5,5-5s5,2.243,5,5S17.679,37,14.922,37z M14.922,29c-1.654,0-3,1.346-3,3   s1.346,3,3,3s3-1.346,3-3S16.576,29,14.922,29z"/>
        <path d="M50.922,16c-2.206,0-4-1.794-4-4s1.794-4,4-4s4,1.794,4,4S53.127,16,50.922,16z M50.922,10c-1.103,0-2,0.897-2,2   s0.897,2,2,2s2-0.897,2-2S52.024,10,50.922,10z"/>
        <path d="M36.316,10.478c-0.331,0-0.656-0.165-0.846-0.465c-0.296-0.467-0.157-1.084,0.31-1.38c7.285-4.615,12.42-5.769,14.849-3.34   c0.914,0.914,1.372,2.249,1.292,3.76c-0.03,0.552-0.505,0.961-1.052,0.945c-0.552-0.029-0.975-0.5-0.945-1.052   c0.051-0.951-0.194-1.725-0.708-2.24c-1.617-1.615-6.239-0.265-12.364,3.615C36.684,10.427,36.499,10.478,36.316,10.478z"/>
        <path d="M4.545,55.902c-1.414,0-2.532-0.397-3.33-1.195c-3.204-3.204,1.247-11.467,3.31-14.871   c0.286-0.473,0.901-0.623,1.373-0.337c0.472,0.286,0.623,0.901,0.337,1.374c-4.154,6.857-4.781,11.245-3.606,12.42   c1.065,1.065,4.386,0.965,10.51-2.51c5.708-3.24,12.347-8.521,18.696-14.869c7.353-7.353,13.708-15.707,16.586-21.803   c0.236-0.5,0.832-0.712,1.331-0.478c0.499,0.236,0.713,0.832,0.477,1.331c-2.97,6.291-9.476,14.86-16.981,22.364   C26.777,43.8,19.986,49.196,14.126,52.522C10.168,54.769,6.934,55.902,4.545,55.902z"/>
        <path d="M25.922,54c-13.234,0-24-10.767-24-24c0-10.525,7.039-19.98,17.117-22.993c0.487-0.146,1.005,0.097,1.206,0.564   C20.876,9.047,22.319,10,23.922,10c1.842,0,3.435-1.256,3.873-3.055c0.12-0.494,0.59-0.818,1.094-0.756   C40.879,7.669,49.922,17.905,49.922,30C49.922,43.233,39.155,54,25.922,54z M18.83,9.173C10.012,12.179,3.922,20.626,3.922,30   c0,12.131,9.869,22,22,22s22-9.869,22-22c0-10.812-7.883-20.003-18.467-21.71C28.542,10.513,26.38,12,23.922,12   C21.827,12,19.914,10.916,18.83,9.173z"/>
        <path d="M22.922,25c-0.256,0-0.512-0.098-0.707-0.293c-0.391-0.391-0.391-1.023,0-1.414l1-1c0.39-0.391,1.024-0.391,1.414,0   c0.391,0.391,0.391,1.023,0,1.414l-1,1C23.434,24.902,23.178,25,22.922,25z"/>
        <path d="M29.922,29c-0.256,0-0.512-0.098-0.707-0.293c-0.391-0.391-0.391-1.023,0-1.414l1-1c0.39-0.391,1.024-0.391,1.414,0   c0.391,0.391,0.391,1.023,0,1.414l-1,1C30.434,28.902,30.178,29,29.922,29z"/>
        <path d="M24.922,29c-0.256,0-0.512-0.098-0.707-0.293c-0.391-0.391-0.391-1.023,0-1.414l1-1c0.39-0.391,1.024-0.391,1.414,0   c0.391,0.391,0.391,1.023,0,1.414l-1,1C25.434,28.902,25.178,29,24.922,29z"/>
        <path d="M26.922,20c-0.256,0-0.512-0.098-0.707-0.293c-0.391-0.391-0.391-1.023,0-1.414l1-1c0.39-0.391,1.024-0.391,1.414,0   c0.391,0.391,0.391,1.023,0,1.414l-1,1C27.434,19.902,27.178,20,26.922,20z"/>
        <path d="M33.922,24c-0.256,0-0.512-0.098-0.707-0.293c-0.391-0.391-0.391-1.023,0-1.414l1-1c0.39-0.391,1.024-0.391,1.414,0   c0.391,0.391,0.391,1.023,0,1.414l-1,1C34.434,23.902,34.178,24,33.922,24z"/>
        <path d="M28.922,24c-0.256,0-0.512-0.098-0.707-0.293c-0.391-0.391-0.391-1.023,0-1.414l1-1c0.39-0.391,1.024-0.391,1.414,0   c0.391,0.391,0.391,1.023,0,1.414l-1,1C29.434,23.902,29.178,24,28.922,24z"/>
    </g>
</svg>
