<svg xmlns="http://www.w3.org/2000/svg" xmlns:xlink="http://www.w3.org/1999/xlink" x="0px" y="0px" style="enable-background:new 0 0 100 100" version="1.1" viewBox="0 0 100 125" xml:space="preserve">
    <path d="M25.516,75.61c-3.095,0-6.208-1.03-8.782-3.143c-2.86-2.349-4.635-5.671-4.996-9.355c-0.361-3.683,0.733-7.287,3.082-10.147  l13.345-16.248c0.351-0.427,0.981-0.488,1.408-0.138c0.427,0.351,0.489,0.981,0.138,1.408L16.366,54.234  c-2.01,2.447-2.947,5.531-2.637,8.683c0.309,3.152,1.827,5.995,4.275,8.004c2.447,2.01,5.527,2.945,8.683,2.638  c3.151-0.31,5.994-1.828,8.004-4.275L62.372,35.58c0.351-0.427,0.981-0.489,1.408-0.138c0.427,0.351,0.489,0.981,0.138,1.408  L36.237,70.554C33.5,73.885,29.524,75.61,25.516,75.61z"/>
    <path d="M31.434,54.489c-1.858-1.526-4.2-2.238-6.593-2.002c-2.394,0.235-4.552,1.388-6.079,3.246  c-1.526,1.858-2.237,4.2-2.002,6.593c0.235,2.393,1.388,4.552,3.246,6.078c1.625,1.335,3.621,2.046,5.698,2.047  c0.297,0,0.596-0.015,0.896-0.044c2.393-0.235,4.552-1.388,6.078-3.246c1.526-1.858,2.238-4.2,2.003-6.593  S33.293,56.015,31.434,54.489z M32.69,60.763c0.183,1.862-0.371,3.683-1.558,5.128c-1.187,1.446-2.866,2.342-4.728,2.525  c-1.866,0.182-3.683-0.37-5.128-1.558c-1.446-1.187-2.343-2.866-2.525-4.728c-0.183-1.862,0.371-3.683,1.558-5.128  c1.187-1.446,2.866-2.343,4.728-2.525c0.233-0.022,0.465-0.034,0.697-0.034c1.615,0,3.167,0.554,4.432,1.592  C31.611,57.222,32.507,58.901,32.69,60.763z"/>
    <path d="M64.159,26.741c0.427,0.351,0.489,0.981,0.138,1.408L41.956,55.351c-0.198,0.241-0.484,0.365-0.773,0.365  c-0.224,0-0.448-0.074-0.634-0.227c-0.427-0.351-0.489-0.981-0.138-1.408l22.341-27.202C63.102,26.452,63.733,26.391,64.159,26.741z  "/>
    <path d="M49.577,33.364c0.427,0.351,0.489,0.981,0.138,1.408L37.453,49.703c-0.198,0.241-0.484,0.365-0.773,0.365  c-0.224,0-0.448-0.074-0.634-0.227c-0.427-0.351-0.489-0.981-0.138-1.408L48.17,33.502C48.521,33.075,49.151,33.013,49.577,33.364z"/>
    <path d="M47.595,21.749c0.351-0.428,0.981-0.488,1.408-0.138c0.427,0.351,0.489,0.981,0.138,1.408L29.912,46.433  c-0.198,0.241-0.484,0.365-0.773,0.365c-0.224,0-0.448-0.074-0.634-0.227c-0.427-0.351-0.489-0.981-0.138-1.408L47.595,21.749z"/>
    <path d="M56.191,55.42l8.931-10.874c0.351-0.427,0.981-0.488,1.408-0.138c0.427,0.351,0.489,0.981,0.138,1.408l-8.931,10.874  c-2.661,3.24-2.19,8.041,1.05,10.702c3.239,2.661,8.041,2.191,10.702-1.05l18.525-22.556c0.35-0.426,0.981-0.489,1.408-0.138  c0.427,0.351,0.489,0.981,0.138,1.408L71.034,67.611c-1.896,2.309-4.653,3.504-7.431,3.504c-2.146,0-4.303-0.713-6.087-2.178  C53.425,65.576,52.83,59.512,56.191,55.42z"/>
    <path d="M67.637,64.591c1.821-2.217,1.499-5.502-0.719-7.324c-2.217-1.819-5.502-1.498-7.324,0.719  c-0.882,1.074-1.293,2.427-1.158,3.811c0.136,1.384,0.802,2.631,1.876,3.514c0.939,0.771,2.093,1.183,3.293,1.183  c0.171,0,0.344-0.009,0.517-0.025C65.507,66.332,66.755,65.666,67.637,64.591z M66.091,63.322c-0.543,0.662-1.311,1.072-2.163,1.155  c-0.854,0.086-1.685-0.169-2.346-0.713c-0.662-0.543-1.072-1.311-1.155-2.163c-0.083-0.852,0.169-1.685,0.713-2.346  c0.543-0.661,1.311-1.072,2.163-1.155c0.106-0.01,0.213-0.016,0.319-0.016c0.739,0,1.449,0.253,2.027,0.729  c0.661,0.543,1.072,1.311,1.155,2.163C66.887,61.828,66.635,62.661,66.091,63.322z"/>
    <path d="M79.506,43.687c0.351-0.427,0.981-0.489,1.408-0.138c0.427,0.351,0.489,0.981,0.138,1.408l-8.207,9.992  c-0.198,0.241-0.484,0.365-0.773,0.365c-0.224,0-0.448-0.074-0.634-0.227c-0.427-0.351-0.489-0.981-0.138-1.408L79.506,43.687z"/>
    <path d="M83.819,31.342c0.427,0.351,0.489,0.981,0.138,1.408l-12.87,15.669c-0.198,0.241-0.484,0.365-0.773,0.365  c-0.224,0-0.448-0.074-0.634-0.227c-0.427-0.351-0.489-0.981-0.138-1.408l12.87-15.669C82.762,31.054,83.392,30.992,83.819,31.342z"/>
    <circle cx="46.599" cy="70.12" r="1.096"/>
    <circle cx="85.606" cy="22.842" r="1.096"/>
    <circle cx="50.219" cy="13.5" r="1.096"/>
    <circle cx="16.794" cy="35.023" r="1.096"/>
    <circle cx="19.39" cy="83.36" r="1.096"/>
    <circle cx="85.352" cy="85.377" r="1.096"/>
    <circle cx="62.204" cy="81.009" r="1.096"/>
    <path d="M79.69,70.848c-2.078,0-3.768,1.69-3.768,3.768s1.69,3.768,3.768,3.768s3.768-1.69,3.768-3.768S81.767,70.848,79.69,70.848z   M79.69,72.848c0.975,0,1.768,0.793,1.768,1.768s-0.793,1.768-1.768,1.768s-1.768-0.793-1.768-1.768S78.715,72.848,79.69,72.848z"/>
    <path d="M73.408,24.076c2.078,0,3.768-1.69,3.768-3.768s-1.69-3.768-3.768-3.768s-3.768,1.69-3.768,3.768  S71.33,24.076,73.408,24.076z M73.408,22.076c-0.975,0-1.768-0.793-1.768-1.768s0.793-1.768,1.768-1.768s1.768,0.793,1.768,1.768  S74.383,22.076,73.408,22.076z"/>
    <path d="M28.227,20.074c0-2.078-1.69-3.768-3.768-3.768s-3.768,1.69-3.768,3.768s1.69,3.768,3.768,3.768  S28.227,22.151,28.227,20.074z M26.227,20.074c0,0.975-0.793,1.768-1.768,1.768s-1.768-0.793-1.768-1.768  c0-0.975,0.793-1.768,1.768-1.768S26.227,19.099,26.227,20.074z"/>
    <path d="M47.451,88.062c2.078,0,3.768-1.69,3.768-3.768s-1.69-3.768-3.768-3.768s-3.768,1.69-3.768,3.768  S45.373,88.062,47.451,88.062z M45.683,84.293c0-0.975,0.793-1.768,1.768-1.768s1.768,0.793,1.768,1.768s-0.793,1.768-1.768,1.768  S45.683,85.269,45.683,84.293z"/>
</svg>
